<svg width="48" height="48" viewBox="0 0 48 48" fill="none" xmlns="http://www.w3.org/2000/svg">
<path d="M22.4 0C18.8654 0 16 2.86538 16 6.4V12.8H35.2V32H41.6C45.1346 32 48 29.1346 48 25.6V6.4C48 2.86538 45.1346 0 41.6 0L22.4 0Z" fill="url(#paint0_linear_308_4)"/>
<path d="M12.8 16H6.4C2.86538 16 0 18.8654 0 22.4L0 41.6C0 45.1346 2.86538 48 6.4 48H25.6C29.1346 48 32 45.1346 32 41.6V35.2H12.8V16Z" fill="url(#paint1_linear_308_4)"/>
<defs>
<linearGradient id="paint0_linear_308_4" x1="46.4" y1="1.6" x2="1.6" y2="46.4" gradientUnits="userSpaceOnUse">
<stop stop-color="#8F00FF"/>
<stop offset="1" stop-color="#3649FC"/>
</linearGradient>
<linearGradient id="paint1_linear_308_4" x1="46.4" y1="1.6" x2="1.6" y2="46.4" gradientUnits="userSpaceOnUse">
<stop stop-color="#8F00FF"/>
<stop offset="1" stop-color="#3649FC"/>
</linearGradient>
</defs>
</svg>
